<?xml version="1.0" standalone="no"?>
<!DOCTYPE svg PUBLIC "-//W3C//DTD SVG 20010904//EN"
 "http://www.w3.org/TR/2001/REC-SVG-20010904/DTD/svg10.dtd">
<svg version="1.0" xmlns="http://www.w3.org/2000/svg"
 width="1380.000000pt" height="1380.000000pt" viewBox="0 0 1380.000000 1380.000000"
 preserveAspectRatio="xMidYMid meet">

<g transform="translate(0.000000,1380.000000) scale(0.100000,-0.100000)"
fill="#000000" stroke="none">
<path d="M670 6895 l0 -6225 6230 0 6230 0 0 6225 0 6225 -6230 0 -6230 0 0
-6225z m12330 -5 l0 -6100 -6100 0 -6100 0 0 6098 c0 3354 2 6101 4 6103 2 2
2747 3 6100 1 l6096 -2 0 -6100z"/>
<path d="M7497 11233 c-4 -3 -7 -454 -7 -1002 0 -853 -2 -1005 -15 -1060 -62
-261 -258 -401 -563 -401 -589 0 -709 584 -245 1192 24 31 43 59 43 61 0 3
-28 19 -62 37 -35 18 -155 81 -268 141 -113 59 -329 173 -480 253 l-275 145
-23 -22 c-42 -39 -160 -202 -224 -309 -172 -288 -274 -595 -300 -904 -52 -598
237 -1174 767 -1529 236 -158 476 -252 785 -307 114 -20 499 -17 620 5 212 39
348 82 527 168 411 197 740 553 904 978 38 98 86 293 99 401 6 52 10 478 10
1122 l0 1038 -643 0 c-354 0 -647 -3 -650 -7z"/>
<path d="M9288 11223 c-2 -9 -2 -632 0 -1385 l2 -1368 800 0 800 0 0 1385 0
1385 -799 0 c-740 0 -800 -1 -803 -17z"/>
<path d="M9390 7816 c-255 -239 -466 -438 -467 -442 -2 -5 23 -22 55 -39 91
-48 272 -167 384 -252 335 -256 523 -551 506 -793 -7 -97 -40 -150 -115 -187
l-58 -28 -467 -3 -468 -3 0 -614 0 -615 1065 0 1065 0 0 1185 c0 1076 -2 1189
-16 1218 -29 56 -144 219 -233 327 -113 139 -309 332 -457 451 -122 99 -305
229 -320 229 -5 0 -218 -196 -474 -434z"/>
<path d="M4557 7623 c-3 -230 -10 -456 -16 -503 -50 -373 -156 -626 -345 -816
-142 -143 -312 -231 -531 -275 -95 -19 -155 -23 -435 -28 l-325 -6 -3 -577 -2
-578 1049 0 1048 0 101 75 c481 359 804 901 957 1607 51 238 111 757 89 777
-5 4 -47 23 -94 41 -313 122 -623 342 -852 607 l-81 93 -277 0 -278 0 -5 -417z"/>
<path d="M8195 7547 c-221 -147 -517 -270 -785 -325 -189 -40 -271 -47 -512
-47 l-238 1 0 -1168 0 -1168 800 0 800 0 0 1370 c0 754 -3 1370 -8 1370 -4 0
-30 -15 -57 -33z"/>
<path d="M3450 4356 c-5 -13 -57 -145 -115 -293 -232 -582 -457 -1149 -462
-1161 -4 -10 50 -12 263 -10 l267 3 30 90 c17 50 35 93 41 97 6 4 129 8 274 8
l262 0 9 -22 c4 -13 20 -58 35 -100 l28 -78 264 0 c145 0 264 2 264 3 0 2 -50
129 -111 283 -61 153 -126 317 -144 364 -149 379 -308 781 -320 808 l-15 32
-280 0 -280 0 -10 -24z m300 -469 c0 -17 101 -329 135 -420 7 -16 -4 -17 -143
-17 l-150 0 64 187 c35 103 67 208 70 235 6 47 24 58 24 15z"/>
<path d="M4722 3638 l3 -743 598 -3 597 -2 0 215 0 215 -335 0 -335 0 -2 528
-3 527 -263 3 -262 2 2 -742z"/>
<path d="M6070 3635 l0 -747 438 5 c464 4 481 6 622 58 216 80 353 232 410
453 76 297 -4 624 -193 791 -64 57 -206 128 -312 157 -75 20 -106 22 -522 26
l-443 3 0 -746z m768 321 c129 -35 192 -142 192 -324 0 -140 -43 -240 -122
-286 -54 -31 -120 -42 -230 -38 l-88 3 0 330 0 329 98 0 c53 0 121 -7 150 -14z"/>
<path d="M8031 4142 c-52 -130 -183 -462 -292 -736 -110 -275 -199 -503 -199
-508 0 -4 118 -8 263 -8 l262 0 35 98 35 97 264 3 c176 1 268 -1 275 -8 6 -6
24 -50 41 -98 l30 -87 263 -3 c155 -1 262 1 262 7 0 10 -66 178 -295 756 -80
204 -178 450 -216 548 l-70 177 -282 0 -282 0 -94 -238z m397 -302 c11 -41 44
-146 75 -232 l55 -158 -149 0 c-82 0 -149 2 -149 4 0 3 24 74 54 159 29 84 62
188 72 230 9 42 19 76 20 74 1 -1 11 -36 22 -77z"/>
<path d="M9390 3635 l0 -745 260 0 260 0 0 220 0 221 63 -3 62 -3 122 -165
c68 -91 141 -189 163 -217 l40 -53 280 0 c199 0 280 3 280 11 0 6 -17 32 -38
58 -21 25 -96 120 -167 211 -70 91 -141 181 -157 201 l-28 37 49 31 c160 103
240 289 212 493 -27 195 -124 319 -305 389 -143 55 -185 59 -662 59 l-434 0 0
-745z m800 327 c75 -37 102 -127 57 -193 -37 -55 -66 -64 -207 -64 l-125 0 -3
138 -3 137 123 0 c97 0 130 -4 158 -18z"/>
</g>
</svg>
